<?xml version="1.0" encoding="UTF-8"?>
<svg xmlns="http://www.w3.org/2000/svg" width="1500" height="880" viewBox="0 0 1500 880" role="img" aria-labelledby="title desc">
  <title id="title">图 15-4 前端专用后端</title>
  <desc id="desc">图 15-4 前端专用后端</desc>

  <defs>
    <marker id="arrow" viewBox="0 0 10 10" refX="9" refY="5" markerWidth="8" markerHeight="8" orient="auto-start-reverse">
      <path d="M 0 0 L 10 5 L 0 10 z" fill="#48636d"/>
    </marker>
    <marker id="arrow-orange" viewBox="0 0 10 10" refX="9" refY="5" markerWidth="8" markerHeight="8" orient="auto-start-reverse">
      <path d="M 0 0 L 10 5 L 0 10 z" fill="#f7b35b"/>
    </marker>
    <filter id="shadow" x="-20%" y="-20%" width="140%" height="150%">
      <feDropShadow dx="0" dy="8" stdDeviation="12" flood-color="#29434d" flood-opacity="0.14"/>
    </filter>
  </defs>
  <rect width="1500" height="880" rx="28" fill="#fbfcfd"/>
  <style>
    text { font-family: -apple-system, BlinkMacSystemFont, "PingFang SC", "Noto Sans CJK SC", sans-serif; fill: #29434d; }
    .h { font-size: 34px; font-weight: 760; }
    .t { font-size: 28px; font-weight: 700; }
    .b { font-size: 24px; font-weight: 560; }
    .s { font-size: 20px; font-weight: 500; fill: #647b85; }
    .tiny { font-size: 17px; font-weight: 520; fill: #647b85; }
    .mono { font-family: ui-monospace, SFMono-Regular, Menlo, monospace; }
  </style>


  <rect x="70" y="175" width="300" height="150" rx="18" fill="#dcecf3" stroke="#48636d" stroke-width="4"/>
  <text x="220" y="250" text-anchor="middle" class="t">移动应用</text>


  <rect x="70" y="545" width="300" height="150" rx="18" fill="#dcecf3" stroke="#48636d" stroke-width="4"/>
  <text x="220" y="620" text-anchor="middle" class="t">Web 应用</text>


  <rect x="515" y="150" width="360" height="200" rx="18" fill="#c9e1eb" stroke="#48636d" stroke-width="4"/>
  <text x="695" y="250" text-anchor="middle" class="t">移动端 BFF</text>


  <rect x="515" y="520" width="360" height="200" rx="18" fill="#c9e1eb" stroke="#48636d" stroke-width="4"/>
  <text x="695" y="620" text-anchor="middle" class="t">Web 端 BFF</text>


  <rect x="1120" y="95" width="300" height="125" rx="18" fill="#dcecf3" stroke="#48636d" stroke-width="4"/>
  <text x="1270" y="157.5" text-anchor="middle" class="t">CRM</text>


  <rect x="1120" y="280" width="300" height="125" rx="18" fill="#dcecf3" stroke="#48636d" stroke-width="4"/>
  <text x="1270" y="342.5" text-anchor="middle" class="t">佣金</text>


  <rect x="1120" y="465" width="300" height="125" rx="18" fill="#dcecf3" stroke="#48636d" stroke-width="4"/>
  <text x="1270" y="527.5" text-anchor="middle" class="t">销售台</text>


  <rect x="1120" y="650" width="300" height="125" rx="18" fill="#dcecf3" stroke="#48636d" stroke-width="4"/>
  <text x="1270" y="712.5" text-anchor="middle" class="t">产品目录</text>

  <path d="M 370 250 L 500 250" stroke="#48636d" stroke-width="5"/><polygon points="500,250 478,237 478,263" fill="#48636d"/>
  <path d="M 370 620 L 500 620" stroke="#48636d" stroke-width="5"/><polygon points="500,620 478,607 478,633" fill="#48636d"/>
  <path d="M 1110 157 L 890 205" fill="none" stroke="#48636d" stroke-width="3.5"/><polygon points="890,205 912,194 916,218" fill="#48636d"/>
  <path d="M 1110 157 L 890 565" fill="none" stroke="#48636d" stroke-width="3.5"/><polygon points="890,565 901,543 922,555" fill="#48636d"/>
  <path d="M 1110 342 L 890 245" fill="none" stroke="#48636d" stroke-width="3.5"/><polygon points="890,245 914,241 904,264" fill="#48636d"/>
  <path d="M 1110 342 L 890 600" fill="none" stroke="#48636d" stroke-width="3.5"/><polygon points="890,600 902,579 922,594" fill="#48636d"/>
  <path d="M 1110 527 L 890 285" fill="none" stroke="#48636d" stroke-width="3.5"/><polygon points="890,285 921,291 904,308" fill="#48636d"/>
  <path d="M 1110 527 L 890 640" fill="none" stroke="#48636d" stroke-width="3.5"/><polygon points="890,640 906,621 917,644" fill="#48636d"/>
  <path d="M 1110 712 L 890 320" fill="none" stroke="#48636d" stroke-width="3.5"/><polygon points="890,320 921,331 899,343" fill="#48636d"/>
  <path d="M 1110 712 L 890 680" fill="none" stroke="#48636d" stroke-width="3.5"/><polygon points="890,680 914,671 910,696" fill="#48636d"/>

</svg>